:FULLY-SPECIFIED
:DEGREES
695
root 4.07258 16.4973 -2.36746 87.7792 -93.421 -81.6974
lowerback 3.02149 -0.337727 -4.07851
upperback 0.814129 -0.58263 0.129021
thorax -0.815881 -0.291347 2.44094
lowerneck -18.3384 -0.771265 -0.970131
upperneck 18.3196 -1.38738 2.35666
head 8.77849 -0.492435 0.779026
rclavicle -6.55989e-015 -1.82882e-014
rhumerus -32.2669 -3.9922 -82.012
rradius 23.5321
rwrist 27.2262
rhand -26.1284 2.07439
rfingers 7.12502
rthumb 0.421715 -27.9049
lclavicle -6.55989e-015 -1.82882e-014
lhumerus -23.2054 0.12394 89.0656
lradius 21.9974
lwrist -14.5868
lhand -26.8213 1.76254
lfingers 7.12502
lthumb -0.247528 31.7421
rfemur -29.8704 9.57321 14.8611
rtibia 20.2125
rfoot -6.25393 -18.8349
rtoes -16.6119
lfemur -2.94211 -12.4781 -29.5518
ltibia 15.021
lfoot -15.5911 5.02309
ltoes -6.85536
696
root 4.06845 16.4956 -2.37599 88.0242 -93.4339 -81.914
lowerback 2.93747 -0.303044 -4.02533
upperback 0.811372 -0.531087 0.104403
thorax -0.77615 -0.266338 2.38324
lowerneck -18.3332 -0.781752 -0.941229
upperneck 18.3636 -1.40622 2.33102
head 8.79258 -0.502147 0.763209
rclavicle 9.93923e-016 -9.93923e-015
rhumerus -32.3662 -4.07915 -81.9763
rradius 23.3369
rwrist 27.4226
rhand -26.0751 2.11814
rfingers 7.12502
rthumb 0.473255 -27.8611
lclavicle 9.93923e-016 -9.93923e-015
lhumerus -23.1417 -0.0840999 89.0971
lradius 22.2286
lwrist -14.3808
lhand -26.9088 1.65013
lfingers 7.12502
lthumb -0.331966 31.6296
rfemur -29.6931 11.5736 13.9097
rtibia 18.0638
rfoot -5.0943 -19.856
rtoes -15.8787
lfemur -2.1379 -12.3687 -29.6114
ltibia 14.2613
lfoot -15.5677 4.93714
ltoes -7.09503
697
root 4.06327 16.4882 -2.38542 87.1251 -93.3596 -81.018
lowerback 2.87474 -0.260316 -3.91377
upperback 0.804442 -0.467399 0.1368
thorax -0.753332 -0.234747 2.35131
lowerneck -18.2206 -0.790841 -0.983188
upperneck 18.2905 -1.40461 2.32706
head 8.74763 -0.505892 0.76895
rclavicle -7.95139e-015 -1.82882e-014
rhumerus -32.4812 -4.11386 -81.915
rradius 23.1876
rwrist 27.5763
rhand -25.7315 2.1343
rfingers 7.12502
rthumb 0.805022 -27.8439
lclavicle -7.95139e-015 -1.82882e-014
lhumerus -23.1119 -0.132391 89.1512
lradius 22.441
lwrist -13.9637
lhand -27.0656 1.53474
lfingers 7.12502
lthumb -0.483442 31.5139
rfemur -29.5179 13.2957 13.2041
rtibia 16.2384
rfoot -4.15457 -20.4264
rtoes -14.9945
lfemur -1.32701 -12.3215 -29.5896
ltibia 13.5865
lfoot -15.6259 4.93192
ltoes -6.83942
698
root 4.05937 16.4793 -2.39538 86.81 -93.3461 -80.6757
lowerback 2.77822 -0.25403 -3.87505
upperback 0.819073 -0.45265 0.17985
thorax -0.685231 -0.22884 2.37258
lowerneck -18.2936 -0.778541 -1.01723
upperneck 18.3834 -1.35809 2.22753
head 8.79093 -0.496433 0.746817
rclavicle 0 -1.98785e-015
rhumerus -32.488 -3.96325 -81.897
rradius 23.0229
rwrist 27.6745
rhand -25.597 2.04525
rfingers 7.12502
rthumb 0.934962 -27.9325
lclavicle 0 -1.98785e-015
lhumerus -23.0484 0.153604 89.1727
lradius 22.6374
lwrist -14.0371
lhand -27.0585 1.56433
lfingers 7.12502
lthumb -0.476552 31.5435
rfemur -29.4179 14.6543 12.5853
rtibia 14.8402
rfoot -3.57437 -20.6985
rtoes -14.3009
lfemur -0.572545 -12.3616 -29.6275
ltibia 12.9661
lfoot -15.7049 5.03974
ltoes -6.96648
699
root 4.05376 16.467 -2.4046 86.4915 -93.3367 -80.4229
lowerback 2.79485 -0.202658 -3.75073
upperback 0.821413 -0.381741 0.15122
thorax -0.698196 -0.193245 2.27117
lowerneck -18.2185 -0.783068 -1.00386
upperneck 18.357 -1.36537 2.21468
head 8.76842 -0.501064 0.739328
rclavicle 3.97569e-016 3.97569e-015
rhumerus -32.5424 -4.07662 -81.8535
rradius 22.7755
rwrist 27.9658
rhand -25.4334 2.18641
rfingers 7.12502
rthumb 1.09299 -27.7905
lclavicle 3.97569e-016 3.97569e-015
lhumerus -23.0514 0.0405936 89.1904
lradius 22.7926
lwrist -13.838
lhand -27.1406 1.49429
lfingers 7.12502
lthumb -0.555924 31.4733
rfemur -29.2558 15.6812 12.175
rtibia 13.8577
rfoot -3.30386 -20.8123
rtoes -13.8671
lfemur 0.216985 -12.3717 -29.693
ltibia 12.4956
lfoot -15.8809 5.08392
ltoes -7.07171
